<svg id="delete" xmlns="http://www.w3.org/2000/svg" width="13.958" height="16.992" viewBox="0 0 13.958 16.992">
  <path id="Sottrazione_3" data-name="Sottrazione 3" d="M10.925,13.352H1.215L0,0H12.137L10.925,13.351ZM6.062,1.818a.342.342,0,0,0-.342.342V11.2a.342.342,0,0,0,.342.343A.337.337,0,0,0,6.4,11.2V2.16A.34.34,0,0,0,6.062,1.818Zm1.9,0a.343.343,0,0,0-.342.335l-.2,9.032a.336.336,0,0,0,.332.348h.007A.338.338,0,0,0,8.1,11.2l.2-9.036a.346.346,0,0,0-.335-.348Zm-3.8,0a.345.345,0,0,0-.241.109.328.328,0,0,0-.091.239l.2,9.036a.336.336,0,0,0,.342.331h.006a.332.332,0,0,0,.239-.1.336.336,0,0,0,.093-.246l-.2-9.032a.344.344,0,0,0-.343-.335Zm5.651.009a.342.342,0,0,0-.338.319l-.606,9.017a.339.339,0,0,0,.085.25.326.326,0,0,0,.231.112h.023a.339.339,0,0,0,.342-.317l.606-9.015a.343.343,0,0,0-.319-.365Zm-7.5,0H2.3a.342.342,0,0,0-.319.365l.606,9.015a.337.337,0,0,0,.338.317h.026a.326.326,0,0,0,.231-.112.34.34,0,0,0,.085-.25l-.6-9.017A.343.343,0,0,0,2.32,1.827Z" transform="translate(1.214 3.64)" fill="#003479"/>
  <rect id="Rettangolo_2368" data-name="Rettangolo 2368" width="13.958" height="2.427" transform="translate(0 1.214)" fill="#003479"/>
  <rect id="Rettangolo_2369" data-name="Rettangolo 2369" width="5.462" height="1.214" transform="translate(4.248 0)" fill="#003479"/>
</svg>
